# xmcd CD database file
#
# Track frame offsets:
#	150
#	21287
#	48358
#	63102
#	81733
#	96127
#	118562
#	135509
#	157151
#	179005
#	205029
#	230540
#	251474
#	281994
#	299699
#
# Disc length: 4244 seconds
#
# Revision: 2
# Processed by: cddbd v1.5.2PL0 Copyright (c) Steve Scherf et al.
# Submitted via: ACXtractor (MTCDDB.DLL V2003.12.21)
#
DISCID=e310920f
DTITLE=Fest Noz - Année 2000
DYEAR=2000
DGENRE=Celtic
TTITLE0=Andro Psg
TTITLE1=Andro Waraok
TTITLE2=Kalon
TTITLE3=Bronn's battle ton doubl plinn
TTITLE4=Rond de Loudeac
TTITLE5=E ti lisa andro
TTITLE6=E Kroazent ma buhez
TTITLE7=l'epongiste
TTITLE8=Dans-tro mod ar poher
TTITLE9=Ker an dour
TTITLE10=Ober troig mezv
TTITLE11=Noz Tomm
TTITLE12=Anencephale
TTITLE13=Le chanteur a la voix d'or
TTITLE14=Kalon Douar
EXTD=ID3G:  88 YEAR: 1970
EXTT0=
EXTT1=
EXTT2=
EXTT3=
EXTT4=
EXTT5=
EXTT6=
EXTT7=
EXTT8=
EXTT9=
EXTT10=
EXTT11=
EXTT12=
EXTT13=
EXTT14=
PLAYORDER=
